<svg width="0" height="0" class="hidden">
  <symbol xmlns="http://www.w3.org/2000/svg" viewBox="-5 -5 130 130" id="circle">
    <circle cx="60" cy="60" r="63" stroke="#283c54"></circle>
    <circle cx="60" cy="60" r="63" stroke="#c78ff9" stroke-dasharray="296 95" stroke-dashoffset="95"></circle>
  </symbol>
  <symbol xmlns="http://www.w3.org/2000/svg" viewBox="-5 -5 130 130" id="circle-2">
    <circle cx="60" cy="60" r="63" stroke="#283c54"></circle>
    <circle cx="60" cy="60" r="63" stroke="#ffc35a" stroke-dasharray="313 150" stroke-dashoffset="167"></circle>
  </symbol>
  <symbol fill="none" xmlns="http://www.w3.org/2000/svg" viewBox="0 0 47 33" id="computer">
    <path d="M47 27.846V0.0849609H0V27.846H17.8403V29.9125C12.8086 30.1334 9.33183 30.599 9.33183 31.1416C9.33183 31.8965 16.0703 32.5097 24.3846 32.5097C32.6991 32.5097 39.4377 31.8964 39.4377 31.1416C39.4377 30.5383 35.1319 30.0279 29.1606 29.8467V27.8461H47V27.846ZM3.08638 25.4669V2.22649H43.9122V25.4669H3.08638ZM23.5001 3.27347L28.5297 7.92488L27.5936 8.78986L23.5001 5.00391L19.4071 8.78986L18.4706 7.92488L23.5001 3.27347ZM27.5934 18.8656L28.5296 19.7313L23.4999 24.3817L18.4704 19.7299L19.4069 18.8648L23.4999 22.6513L27.5934 18.8656Z" fill="#4992E6"></path>
  </symbol>
  <symbol xmlns="http://www.w3.org/2000/svg" viewBox="0 0 20 20" id="like">
    <path d="M19.9669 6.24733C19.675 3.03407 17.4006 0.702777 14.5543 0.702777C12.658 0.702777 10.9218 1.72322 9.9448 3.3587C8.97667 1.70207 7.31158 0.702393 5.4457 0.702393C2.59977 0.702393 0.325019 3.03368 0.033464 6.24694C0.0103857 6.38888 -0.0842351 7.13584 0.203474 8.35399C0.618113 10.111 1.57586 11.7092 2.97248 12.9746L9.94019 19.2977L17.0275 12.975C18.4241 11.7092 19.3819 10.1114 19.7965 8.35399C20.0842 7.13623 19.9896 6.38926 19.9669 6.24733Z"></path>
  </symbol>
  <symbol fill="none" xmlns="http://www.w3.org/2000/svg" viewBox="0 0 36 53" id="optima">
    <path d="M35.2557 35.8813C27.3184 29.8738 25.3845 15.6593 25.3394 15.3075C25.3103 12.0089 24.4269 9.81168 22.8517 6.68477C21.3628 3.51522 19.9565 0.520508 17.8367 0.520508C15.717 0.520508 14.3107 3.51522 12.8218 6.68477C12.3195 7.9641 10.3753 10.6635 10.334 15.3075C10.289 15.655 8.35322 29.8738 0.417755 35.8834C0.289485 35.9806 0.184271 36.1122 0.11141 36.2665C0.0385494 36.4209 0.000285496 36.5932 0 36.7683V44.2311C6.45649e-05 44.4909 0.0836653 44.7418 0.235095 44.9365C0.386524 45.1312 0.59536 45.2565 0.822368 45.2887L7.5102 46.2386V47.4294C7.5102 47.7122 7.60911 47.9834 7.78516 48.1833C7.96122 48.3832 8.2 48.4956 8.44898 48.4956V51.6939C8.44898 51.9766 8.54788 52.2478 8.72394 52.4478C8.89999 52.6477 9.13877 52.76 9.38775 52.76H13.1429C13.3918 52.76 13.6306 52.6477 13.8067 52.4478C13.9827 52.2478 14.0816 51.9766 14.0816 51.6939V48.4956C14.3306 48.4956 14.5694 48.3832 14.7454 48.1833C14.9215 47.9834 15.0204 47.7122 15.0204 47.4294V46.3633H20.6531V47.4294C20.6531 47.7122 20.752 47.9834 20.928 48.1833C21.1041 48.3832 21.3429 48.4956 21.5918 48.4956V51.6939C21.5918 51.9766 21.6907 52.2478 21.8668 52.4478C22.0428 52.6477 22.2816 52.76 22.5306 52.76H26.2857C26.5347 52.76 26.7735 52.6477 26.9495 52.4478C27.1256 52.2478 27.2245 51.9766 27.2245 51.6939V48.4956C27.4735 48.4956 27.7122 48.3832 27.8883 48.1833C28.0644 47.9834 28.1633 47.7122 28.1633 47.4294V46.2386L34.8511 45.2887C35.0781 45.2565 35.2869 45.1312 35.4384 44.9365C35.5898 44.7418 35.6734 44.4909 35.6735 44.2311V36.7683C35.6735 36.5928 35.6354 36.4201 35.5625 36.2654C35.4896 36.1106 35.3842 35.9787 35.2557 35.8813ZM33.7959 37.328V38.9006H28.1529C28.0285 37.8956 27.7176 36.9322 27.2409 36.0739C26.7641 35.2156 26.1323 34.4821 25.3873 33.9218C25.3751 33.9133 25.3591 33.8983 25.3469 33.8898V23.5922C26.849 28.2256 29.4456 33.8152 33.7959 37.328ZM22.5306 45.2972V39.263C22.6125 38.5596 22.8216 37.8831 23.1447 37.2758C23.4678 36.6685 23.8979 36.1437 24.4082 35.7342C26.6086 37.6649 26.2069 39.1724 26.2857 39.9667V46.3633H22.5306V45.2972ZM17.8367 2.65273C18.7145 2.65273 19.8833 4.92249 20.8314 6.91718H14.842C15.7902 4.92249 16.959 2.65273 17.8367 2.65273ZM13.1429 39.263V46.3633H9.38775V39.263C9.46964 38.5596 9.6787 37.8831 10.0018 37.2758C10.3249 36.6685 10.7551 36.1437 11.2653 35.7342C11.3592 35.8408 13.1429 37.2715 13.1429 39.263ZM1.87755 37.328C6.22784 33.8099 8.82449 28.2256 10.3265 23.5922V33.8898C9.55979 34.4351 8.90997 35.1679 8.42451 36.0348C7.93904 36.9017 7.6302 37.8808 7.52053 38.9006H1.87755V37.328ZM1.87755 43.2897V41.0328H7.5102V44.0893L1.87755 43.2897ZM12.2041 50.6278H10.3265V48.4956H12.2041V50.6278ZM18.7755 44.2311V34.6361C18.7755 34.3534 18.6766 34.0822 18.5005 33.8822C18.3245 33.6823 18.0857 33.57 17.8367 33.57C17.5878 33.57 17.349 33.6823 17.1729 33.8822C16.9969 34.0822 16.898 34.3534 16.898 34.6361V44.2311H15.0204V39.263C14.9371 38.1845 14.6406 37.1412 14.153 36.2109C13.6654 35.2806 12.9992 34.4872 12.2041 33.8898V15.4461C12.2144 13.1835 12.7786 10.9687 13.8338 9.04941H21.8397C22.8992 10.9665 23.4639 13.1827 23.4694 15.4461V33.8898C22.6664 34.4776 21.9943 35.2686 21.5056 36.2009C21.017 37.1331 20.7252 38.1812 20.6531 39.263V44.2311H18.7755ZM25.3469 50.6278H23.4694V48.4956H25.3469V50.6278ZM33.7959 43.2897L28.1633 44.0893V41.0328H33.7959V43.2897Z" fill="#9570EE"></path>
    <path d="M21.5919 16.5125C21.5919 15.3815 21.1962 14.2968 20.492 13.4971C19.7878 12.6973 18.8327 12.248 17.8368 12.248C16.8408 12.248 15.8857 12.6973 15.1815 13.4971C14.4773 14.2968 14.0817 15.3815 14.0817 16.5125C14.0817 16.7953 14.1806 17.0664 14.3566 17.2664C14.5327 17.4663 14.7715 17.5786 15.0204 17.5786H20.6531C20.9021 17.5786 21.1408 17.4663 21.3169 17.2664C21.493 17.0664 21.5919 16.7953 21.5919 16.5125ZM16.2117 15.4464C16.3767 15.1228 16.6136 14.8541 16.8988 14.6673C17.1841 14.4805 17.5075 14.3822 17.8368 14.3822C18.166 14.3822 18.4895 14.4805 18.7747 14.6673C19.0599 14.8541 19.2969 15.1228 19.4618 15.4464H16.2117Z" fill="#9570EE"></path>
  </symbol>
  <symbol fill="none" xmlns="http://www.w3.org/2000/svg" viewBox="0 0 34 53" id="premium">
    <path d="M31.895 51.9518L32.6555 48.4949H32.862C32.9937 48.4957 33.1239 48.465 33.2444 48.4049C33.3649 48.3448 33.473 48.2565 33.5615 48.1459C33.65 48.0353 33.7171 47.9049 33.7583 47.7629C33.7996 47.621 33.8141 47.4708 33.801 47.3221C33.6892 46.0244 33.6038 44.3802 33.5127 42.638C33.4291 41.0119 33.3371 39.2579 33.2113 37.489C32.8405 32.2387 32.1137 25.8667 29.7749 23.2149C29.5988 23.015 29.3601 22.9027 29.1111 22.9027C28.8621 22.9027 28.6234 23.015 28.4473 23.2149C26.5958 25.3176 25.7517 29.5901 25.2907 34.1974C24.564 34.0631 23.9189 33.9159 23.3668 33.757C23.4297 32.0851 23.4729 30.2618 23.4729 28.2359C23.4729 5.53516 17.6686 0.879848 17.4217 0.692186C17.3886 0.671487 17.3545 0.65332 17.3193 0.637806C17.289 0.618933 17.2576 0.602197 17.2254 0.587692C17.0154 0.498113 16.7839 0.498113 16.5738 0.587692C16.5416 0.602197 16.5103 0.618933 16.4799 0.637806C16.4448 0.65332 16.4106 0.671487 16.3776 0.692186C16.1325 0.879848 10.3282 5.53516 10.3282 28.2359C10.3282 30.2618 10.3695 32.0873 10.4362 33.7624C9.88596 33.9212 9.24374 34.0673 8.51985 34.2017C8.03912 29.541 7.17626 25.2813 5.35853 23.2192C5.18246 23.0193 4.94369 22.907 4.69472 22.907C4.44576 22.907 4.20698 23.0193 4.03091 23.2192C1.68364 25.8848 0.979453 31.9337 0.603888 37.4975C0.505303 38.9839 0.429251 40.4617 0.356955 41.8638C0.253675 43.8972 0.155089 45.8154 0.00580209 47.3103C-0.00886181 47.4594 0.0043459 47.6104 0.044561 47.7533C0.0847762 47.8962 0.151094 48.0278 0.239179 48.1396C0.327265 48.2515 0.435136 48.3409 0.555742 48.4021C0.676347 48.4633 0.806973 48.495 0.93908 48.4949H1.1447L1.90616 51.9518C1.95684 52.1826 2.07401 52.3875 2.23904 52.5339C2.40406 52.6804 2.60747 52.7599 2.8169 52.76H6.57254C6.78198 52.7599 6.98538 52.6804 7.15041 52.5339C7.31543 52.3875 7.4326 52.1826 7.48329 51.9518L8.24474 48.4949H8.45037C8.58198 48.4957 8.71226 48.465 8.83276 48.4049C8.95326 48.3448 9.06128 48.2565 9.14981 48.1459C9.23834 48.0353 9.30542 47.9049 9.34667 47.7629C9.38792 47.621 9.40244 47.4708 9.38928 47.3221C9.26065 45.8879 9.16769 43.91 9.07756 42.1485C9.69229 41.726 10.3295 41.3471 10.9854 41.014C11.217 43.2872 11.6376 45.5303 12.2417 47.7134L13.175 51.9518C13.2256 52.1822 13.3425 52.3868 13.5071 52.5332C13.6717 52.6797 13.8747 52.7595 14.0838 52.76H19.7173C19.9267 52.7599 20.1301 52.6804 20.2952 52.5339C20.4602 52.3875 20.5774 52.1826 20.628 51.9518L21.5519 47.7518C22.1786 45.5623 22.6022 43.3045 22.8157 41.0151C23.4817 41.3508 24.1281 41.7347 24.7508 42.1645C24.6569 44.0838 24.563 45.8901 24.4184 47.3103C24.4038 47.4593 24.4169 47.6102 24.4571 47.753C24.4973 47.8959 24.5635 48.0275 24.6515 48.1392C24.7395 48.251 24.8472 48.3405 24.9677 48.4018C25.0882 48.4631 25.2187 48.4948 25.3508 48.4949H25.5573L26.3178 51.9518C26.3685 52.1826 26.4857 52.3875 26.6507 52.5339C26.8157 52.6804 27.0191 52.7599 27.2286 52.76H30.9842C31.1937 52.7599 31.3971 52.6804 31.5621 52.5339C31.7271 52.3875 31.8443 52.1826 31.895 51.9518ZM30.0453 40.5364L31.4537 39.4701C31.5222 40.6003 31.5804 41.7092 31.6349 42.7616C31.7016 44.0412 31.7654 45.2695 31.8396 46.3582H30.0453V40.5364ZM29.1064 25.7153C30.4547 28.2946 31.0002 33.1717 31.2922 37.0337L28.5891 39.0745C28.4594 39.1717 28.353 39.3039 28.2795 39.4593C28.2059 39.6147 28.1674 39.7884 28.1675 39.9648V46.3624H26.3836C26.4774 45.0829 26.5544 43.6243 26.6324 42.0974C26.9178 36.5379 27.2962 29.1295 29.1064 25.7174V25.7153ZM21.5951 28.2359C21.5951 33.4969 21.2637 41.3606 19.9746 46.3624H17.8395V23.7747C18.3883 23.5575 18.864 23.1518 19.2007 22.6138C19.5373 22.0758 19.7182 21.4321 19.7182 20.7721C19.7182 20.1121 19.5373 19.4684 19.2007 18.9304C18.864 18.3923 18.3883 17.9866 17.8395 17.7695V4.61284C19.3859 7.61651 21.5951 14.3404 21.5951 28.2359ZM16.9006 19.7058C17.0863 19.7058 17.2678 19.7683 17.4222 19.8855C17.5766 20.0027 17.6969 20.1692 17.768 20.364C17.8391 20.5589 17.8577 20.7733 17.8214 20.9801C17.7852 21.1869 17.6958 21.3769 17.5645 21.526C17.4332 21.6752 17.2659 21.7767 17.0837 21.8179C16.9016 21.859 16.7128 21.8379 16.5413 21.7572C16.3697 21.6765 16.2231 21.5398 16.1199 21.3645C16.0167 21.1891 15.9617 20.983 15.9617 20.7721C15.9617 20.4893 16.0606 20.2181 16.2367 20.0181C16.4127 19.8182 16.6515 19.7058 16.9006 19.7058ZM15.9617 4.60857V17.7695C15.4128 17.9866 14.9371 18.3923 14.6004 18.9304C14.2638 19.4684 14.0829 20.1121 14.0829 20.7721C14.0829 21.4321 14.2638 22.0758 14.6004 22.6138C14.9371 23.1518 15.4128 23.5575 15.9617 23.7747V46.3624H13.8313C12.5243 41.3169 12.206 33.4756 12.206 28.2359C12.206 14.3276 14.419 7.60584 15.9617 4.60857ZM4.69472 25.7206C6.93027 30.0209 7.05139 40.8701 7.42695 46.3603H5.63363V39.9648C5.63366 39.7893 5.59553 39.6165 5.52265 39.4618C5.44976 39.307 5.34437 39.1751 5.21582 39.0777L2.52021 37.0369C2.79812 33.1834 3.33236 28.3138 4.69472 25.7227V25.7206ZM1.97188 46.3624C2.07141 45.052 2.14934 43.5518 2.22914 41.9907C2.27046 41.1782 2.31365 40.338 2.36247 39.4871L3.75581 40.5353V46.3624H1.97188ZM5.83644 50.6275H3.55019L3.08074 48.4949H6.30871L5.83644 50.6275ZM8.94236 39.7761C8.92733 39.5149 8.91043 39.243 8.89353 38.954C8.84001 38.0807 8.77898 37.2032 8.70575 36.3289C9.37707 36.2063 9.9883 36.073 10.5347 35.928C10.5958 36.9633 10.669 37.9176 10.7488 38.8069C10.1332 39.0942 9.53118 39.4177 8.94517 39.7761H8.94236ZM18.984 50.6275H14.8171L14.3477 48.4949H19.4535L18.984 50.6275ZM23.2438 36.1018C23.2438 36.042 23.2523 35.9877 23.256 35.928C23.8031 36.0701 24.4134 36.2038 25.0869 36.3289C24.993 37.5018 24.9123 38.7514 24.8531 39.7761C24.2655 39.4181 23.6619 39.095 23.0448 38.8079C23.119 37.9763 23.1847 37.0635 23.2438 36.1018ZM30.2509 50.6275H27.9619L27.4924 48.4949H30.7204L30.2509 50.6275Z" fill="#FF56A9"></path>
  </symbol>
  <symbol fill="none" xmlns="http://www.w3.org/2000/svg" viewBox="0 0 27 53" id="standart">
    <path d="M24.6826 33.3641L24.6526 33.3058C24.5877 33.1178 24.4744 32.9564 24.3274 32.8426C24.1805 32.7288 24.0068 32.6679 23.829 32.6679C22.884 32.6753 21.9416 32.7799 21.0133 32.9803C21.1141 31.388 21.1751 29.6239 21.1751 27.6449C21.1914 24.879 20.9572 22.1186 20.4763 19.4071C18.9379 10.9332 15.3199 7.11775 14.0982 6.03881V1.52511C14.0982 1.25868 14.005 1.00315 13.8391 0.81475C13.6732 0.62635 13.4482 0.520508 13.2136 0.520508C12.979 0.520508 12.754 0.62635 12.5881 0.81475C12.4222 1.00315 12.329 1.25868 12.329 1.52511V6.03881C11.1073 7.11775 7.48924 10.9332 5.95089 19.4001C5.46957 22.1138 5.23539 24.8767 5.25205 27.6449C5.25205 29.6199 5.31397 31.387 5.41835 32.9813C4.4886 32.7801 3.54467 32.6752 2.5982 32.6679C2.42036 32.6679 2.24666 32.7288 2.09975 32.8426C1.95283 32.9564 1.83953 33.1178 1.77462 33.3058L1.74454 33.3641C-0.221074 37.2047 -0.532459 43.6271 0.844889 51.9413C0.882125 52.1664 0.986028 52.3704 1.13936 52.5193C1.2927 52.6683 1.48626 52.7532 1.68793 52.76H1.71358C1.91106 52.7602 2.1029 52.6853 2.25857 52.5473C2.41423 52.4093 2.52476 52.2161 2.57255 51.9985C3.47928 47.8706 4.11797 45.7368 4.76109 44.7402C5.87837 44.8753 6.98121 45.1351 8.05363 45.5158L8.81705 48.9847C8.8648 49.2021 8.9752 49.3952 9.13068 49.5332C9.28616 49.6711 9.4778 49.7461 9.67513 49.7462H16.7521C16.9494 49.7461 17.141 49.6711 17.2965 49.5332C17.452 49.3952 17.5624 49.2021 17.6101 48.9847L18.3736 45.5158C19.4459 45.1348 20.5488 44.875 21.6661 44.7402C22.3092 45.7368 22.9479 47.8706 23.8546 51.9985C23.9024 52.2161 24.013 52.4093 24.1686 52.5473C24.3243 52.6853 24.5161 52.7602 24.7136 52.76H24.7393C24.9409 52.7532 25.1345 52.6683 25.2878 52.5193C25.4412 52.3704 25.5451 52.1664 25.5823 51.9413C26.9596 43.6271 26.6483 37.2047 24.6826 33.3641ZM13.2136 27.6449C12.8637 27.6449 12.5216 27.527 12.2307 27.3062C11.9397 27.0855 11.7129 26.7717 11.579 26.4045C11.4451 26.0374 11.4101 25.6334 11.4784 25.2437C11.5466 24.8539 11.7151 24.4959 11.9626 24.2149C12.21 23.9339 12.5252 23.7426 12.8684 23.665C13.2116 23.5875 13.5674 23.6273 13.8906 23.7794C14.2139 23.9315 14.4903 24.189 14.6847 24.5194C14.8791 24.8498 14.9828 25.2383 14.9828 25.6357C14.9828 26.1685 14.7964 26.6796 14.4646 27.0564C14.1328 27.4332 13.6828 27.6449 13.2136 27.6449ZM14.0982 29.5114C14.9321 29.2669 15.6588 28.6854 16.1422 27.8759C16.6256 27.0664 16.8324 26.0845 16.7239 25.1143C16.6153 24.144 16.1989 23.252 15.5527 22.6054C14.9065 21.9589 14.0748 21.6022 13.2136 21.6022C12.3524 21.6022 11.5207 21.9589 10.8745 22.6054C10.2282 23.252 9.81185 24.144 9.70333 25.1143C9.59481 26.0845 9.80162 27.0664 10.285 27.8759C10.7683 28.6854 11.4951 29.2669 12.329 29.5114V43.7186H9.30978C8.5844 42.1333 7.02128 37.5593 7.02128 27.6449C7.01018 25.2877 7.18575 22.9341 7.54586 20.6126H10.5597C10.7241 20.6127 10.8853 20.5608 11.0251 20.4626C11.165 20.3645 11.278 20.2241 11.3515 20.0571L11.9911 18.6034H14.4361L15.0757 20.0571C15.1492 20.2241 15.2622 20.3645 15.402 20.4626C15.5419 20.5608 15.7031 20.6127 15.8674 20.6126H18.8813C19.2414 22.9341 19.417 25.2877 19.4059 27.6449C19.4059 30.1443 19.3104 32.2962 19.1564 34.1447V34.1567C18.6796 39.6579 17.6898 42.4949 17.1218 43.7186H14.0982V29.5114ZM13.2136 7.81194C14.3185 8.87782 17.0758 12.0855 18.5027 18.6004H16.4141L15.779 17.1497C15.7052 16.982 15.5915 16.841 15.4508 16.7429C15.3101 16.6447 15.148 16.5932 14.9828 16.5942H11.4444C11.28 16.5941 11.1188 16.646 10.979 16.7442C10.8391 16.8423 10.7261 16.9827 10.6526 17.1497L10.0131 18.6034H7.92447C9.35224 12.0855 12.1105 8.87883 13.2136 7.81495V7.81194ZM4.36743 42.714C4.13284 42.714 3.90787 42.8199 3.74201 43.0083C2.89866 44.147 2.29562 45.4895 1.97897 46.9333C1.49154 41.6189 1.87901 37.3735 3.12012 34.6871C3.94718 34.731 4.76937 34.8557 5.57759 35.0599C5.79574 37.8247 6.32431 40.5465 7.15043 43.159C6.23965 42.8969 5.30653 42.7477 4.36743 42.714ZM16.0612 47.737H10.366L9.92371 45.7278H16.5035L16.0612 47.737ZM24.4473 46.9333C24.1313 45.4885 23.5286 44.1449 22.6852 43.0053C22.5189 42.818 22.294 42.7132 22.0598 42.714C21.1257 42.7483 20.1977 42.8972 19.2918 43.158C20.1203 40.548 20.6452 37.8262 20.8531 35.0619C21.6599 34.858 22.4806 34.7337 23.3062 34.6902C24.5482 37.3765 24.9348 41.6219 24.4482 46.9333H24.4473Z" fill="#489AFF"></path>
  </symbol>
  <symbol fill="none" xmlns="http://www.w3.org/2000/svg" viewBox="0 0 52 40" id="technique">
    <path d="M17.6357 29.3022H16.891H11.354V31.8729H34.0931V29.4757L30.3313 29.3012H17.6357V29.3022ZM20.9606 30.8803H13.1261V30.4001H20.9606V30.8803Z" fill="#4992E6"></path>
    <path d="M0 39.7516H10.1467V23.9681H0V39.7516ZM5.20207 39.0704C4.87898 39.0704 4.61688 38.8271 4.61688 38.5293C4.61688 38.2284 4.88 37.987 5.20207 37.987C5.52475 37.987 5.78665 38.2284 5.78665 38.5293C5.78767 38.8271 5.52475 39.0704 5.20207 39.0704ZM5.29998 24.6214C5.4346 24.6214 5.54392 24.7208 5.54392 24.8464C5.54392 24.9718 5.43358 25.0733 5.29998 25.0733C5.16536 25.0733 5.05501 24.9709 5.05501 24.8464C5.05399 24.7208 5.16413 24.6214 5.29998 24.6214ZM3.83955 25.3789H6.75633V25.5962H3.83955V25.3789ZM1.62809 26.3722L8.51843 26.3682V37.2111C5.88292 37.2255 2.93473 37.2351 1.62809 37.2255V26.3722Z" fill="#4992E6"></path>
    <path d="M18.1842 2.29097H46.0146V10.8779H48.4011V0.0849609H15.799V11.312H18.1842V2.29097Z" fill="#4992E6"></path>
    <path d="M31.775 21.671H36.1916V20.6443H34.8211V19.4014H36.1916V16.5571H31.775V21.671Z" fill="#4992E6"></path>
    <path d="M37.4447 11.8848V32.0455H51.9764V11.8848H37.4447ZM45.0182 31.0332C44.6308 31.0332 44.3179 30.7419 44.3179 30.3854C44.3179 30.0274 44.6306 29.7379 45.0182 29.7379C45.4057 29.7379 45.7184 30.0272 45.7184 30.3854C45.7184 30.7419 45.4055 31.0332 45.0182 31.0332ZM49.8757 28.7017H39.546V13.8267H49.8778L49.8757 28.7017Z" fill="#4992E6"></path>
    <path d="M6.15537 14.4326H28.3756V26.7497H11.354V28.5618H30.3353V12.6221H4.19684V22.9049H6.15537V14.4326Z" fill="#4992E6"></path>
  </symbol>
  <symbol fill="none" xmlns="http://www.w3.org/2000/svg" viewBox="0 0 16 16" id="tick">
    <g clip-path="url(#clip0_86_32)">
      <path d="M15.7657 2.35933C15.4533 2.04689 14.9468 2.04689 14.6343 2.35933L5.04981 11.9439L1.36569 8.2598C1.05328 7.94736 0.546781 7.94739 0.234313 8.2598C-0.0781246 8.5722 -0.0781246 9.0787 0.234313 9.39114L4.48412 13.6409C4.79643 13.9533 5.30331 13.9531 5.6155 13.6409L15.7657 3.4907C16.0781 3.1783 16.0781 2.67177 15.7657 2.35933Z" fill="#9570EE"></path>
    </g>
    <defs>
      <clipPath id="clip0_86_32">
        <rect width="16" height="16" fill="white"></rect>
      </clipPath>
    </defs>
  </symbol>
  <symbol fill="none" xmlns="http://www.w3.org/2000/svg" viewBox="0 0 16 16" id="tick-red">
    <g clip-path="url(#clip0_86_40)">
      <path d="M15.7657 2.35933C15.4533 2.04689 14.9468 2.04689 14.6343 2.35933L5.04982 11.9439L1.3657 8.2598C1.0533 7.94736 0.546796 7.94739 0.234328 8.2598C-0.0781093 8.5722 -0.0781093 9.0787 0.234328 9.39114L4.48414 13.6409C4.79645 13.9533 5.30332 13.9531 5.61551 13.6409L15.7657 3.4907C16.0781 3.1783 16.0781 2.67177 15.7657 2.35933Z" fill="#FF56A9"></path>
    </g>
    <defs>
      <clipPath id="clip0_86_40">
        <rect width="16" height="16" fill="white"></rect>
      </clipPath>
    </defs>
  </symbol>
</svg>